<?xml version="1.0" encoding="UTF-8" standalone="no"?>
<!-- Created with Inkscape (http://www.inkscape.org/) -->

<svg
   width="57.17889mm"
   height="102.45224mm"
   viewBox="0 0 57.17889 102.45224"
   version="1.1"
   id="svg1"
   xml:space="preserve"
   xmlns="http://www.w3.org/2000/svg"
   xmlns:svg="http://www.w3.org/2000/svg"><defs
     id="defs1"><linearGradient
       id="swatch5"><stop
         style="stop-color:#b4ef00;stop-opacity:1;"
         offset="0"
         id="stop5" /></linearGradient></defs><g
     id="layer1"
     transform="translate(-81.244973,-117.2585)"><path
       style="fill:none;stroke-width:0.264583"
       d="m 146.12726,207.24716 c 0,3.8518 -3.12261,6.97441 -6.97441,6.97441 H 70.748794 c -3.851804,0 -6.974416,-3.12261 -6.974416,-6.97441 V 89.753108 c 0,-3.851804 3.122612,-6.974416 6.974416,-6.974416 h 68.404056 c 3.8518,0 6.97441,3.122612 6.97441,6.974416 z"
       id="path1" /><g
       id="g5"
       transform="matrix(0.55846223,0,0,0.55846223,47.431194,82.548748)"><g
         id="g4"><g
           id="g3"
           style="fill:#f9f9f9;stroke:#f9f9f9;stroke-width:1.00157;stroke-dasharray:none;stroke-opacity:1"
           transform="matrix(0.26458333,0,0,0.26458333,36.13539,79.684834)">
	<path
   style="fill:#f9f9f9;stroke:#f9f9f9;stroke-width:1.00157;stroke-dasharray:none"
   d="M 419.232,354.345 V 33.964 C 419.232,15.236 403.996,0 385.267,0 H 126.733 C 108.005,0 92.769,15.236 92.769,33.964 v 444.071 c 0,18.728 15.236,33.964 33.964,33.964 h 258.535 c 18.728,0 33.964,-15.236 33.964,-33.964 V 374.624 h -15.208 v 103.412 c 0,10.342 -8.414,18.756 -18.756,18.756 H 126.733 c -10.342,0 -18.756,-8.414 -18.756,-18.756 V 198.72 H 404.025 V 354.345 Z M 107.976,183.512 V 33.964 c 0,-10.342 8.414,-18.756 18.756,-18.756 h 258.535 c 10.342,0 18.756,8.414 18.756,18.756 V 153.093 H 297.57 v 15.208 h 106.453 v 15.211 z"
   id="path2" />
	<path
   id="rect2"
   d="m 224.56,153.093 h 52.731 v 15.208 H 224.56 Z" />
	<path
   id="polygon2"
   d="m 133.326,224.07 v 100.877 h 15.208 v -85.669 h 12.67 V 224.07 Z" />
	<path
   id="polygon3"
   d="m 161.204,90.24 h -27.878 v 70.457 h 15.208 v -55.249 h 12.67 z" />
</g><path
           d="m 74.703322,245.60655 5.093263,-1.07813 V 244.231 c -0.743543,-0.11153 -1.896033,-1.00378 -1.896033,-2.2678 v -23.31005 l -5.427856,0.74355 v 0.29741 c 1.301198,0.96661 1.710146,1.82168 1.710146,3.53183 v 5.61374 c -1.115313,-0.52048 -2.416511,-0.89225 -3.866418,-0.89225 -5.241972,0 -8.736619,3.68053 -8.736619,8.9225 0,5.24197 3.494647,8.73662 8.736619,8.73662 1.710146,0 2.974168,-0.59483 4.089481,-1.3012 z m -4.386898,-0.55765 c -2.899814,0 -4.833023,-3.27159 -4.833023,-8.17897 0,-4.90737 1.933209,-8.36484 4.833023,-8.36484 1.672969,0 2.936991,1.11531 3.866418,2.60239 v 12.15691 c -1.003781,1.15249 -2.416511,1.78451 -3.866418,1.78451 z m 27.585411,-9.66605 c 0,-4.31254 -3.420293,-7.24954 -7.323889,-7.24954 -5.241971,0 -8.736619,3.49465 -8.736619,8.73662 0,5.24197 3.494648,8.73662 8.736619,8.73662 3.903596,0 5.836805,-2.2678 7.546952,-4.72149 l -0.297417,-0.26024 c -1.561439,2.30498 -3.940773,3.04852 -6.022691,2.97417 -3.160053,-0.11153 -6.059867,-2.6024 -6.059867,-6.72906 0,-0.52048 0.03718,-1.00378 0.07435,-1.48708 z m -12.008204,-0.63201 c 0.483303,-3.71771 2.230626,-6.05987 4.684315,-6.05987 2.602397,0 3.754887,3.53183 3.45747,6.05987 z M 99.091557,219.3967 v 0.29741 c 1.301203,0.96661 1.710143,1.82168 1.710143,3.53183 v 18.55137 c 0,1.71015 -0.26024,2.41651 -1.375549,3.53183 v 0.29741 h 6.543169 v -0.29741 c -1.04096,-1.11532 -1.44991,-1.82168 -1.44991,-3.53183 v -23.12416 z m 10.037853,3.94077 c 0,1.44991 0.9666,2.41651 2.37933,2.41651 1.41273,0 2.37933,-0.9666 2.37933,-2.41651 0,-1.41273 -0.9666,-2.37934 -2.37933,-2.37934 -1.41273,0 -2.37933,0.96661 -2.37933,2.37934 z m -0.92943,5.53939 v 0.29741 c 1.3012,0.96661 1.71015,1.82168 1.71015,3.53183 v 9.07121 c 0,1.71015 -0.26024,2.41651 -1.37556,3.53183 v 0.29741 h 6.54317 v -0.29741 c -1.04096,-1.11532 -1.4499,-1.82168 -1.4499,-3.53183 v -13.644 z m 25.68941,4.20101 c 0.9666,-1.52426 2.34215,-2.97417 4.31254,-2.97417 1.74732,0 2.71393,1.52426 2.71393,3.12288 l 0.0743,8.55073 c 0,1.59862 -0.26024,2.41651 -1.37555,3.53183 v 0.29741 h 6.54317 v -0.29741 c -1.07814,-1.15249 -1.44991,-1.93321 -1.44991,-3.53183 -0.0372,-3.23441 -0.0744,-6.05987 -0.0744,-9.29427 0,-2.937 -2.1191,-4.34973 -4.8702,-4.34973 -2.89981,0 -4.3869,1.6358 -5.87398,3.86642 -0.26024,-2.71393 -2.34216,-3.86642 -4.8702,-3.86642 -3.0857,0 -4.83303,2.04475 -6.28293,4.49843 v -4.49843 l -5.42786,0.74355 v 0.29741 c 1.33838,0.96661 1.71015,1.89604 1.71015,3.53183 v 9.07121 c 0,1.59862 -0.22307,2.37934 -1.37556,3.53183 v 0.29741 h 6.54317 v -0.29741 c -1.07813,-1.15249 -1.4499,-1.93321 -1.4499,-3.53183 v -8.03025 c 1.04096,-1.7845 2.45369,-3.64336 4.72149,-3.64336 1.74732,0 2.71393,1.52426 2.71393,3.12288 l 0.0743,8.55073 c 0,1.59862 -0.26024,2.41651 -1.37555,3.53183 v 0.29741 h 6.54317 v -0.29741 c -1.07814,-1.15249 -1.44991,-1.93321 -1.44991,-3.53183 z"
           id="text2"
           style="font-size:37.1771px;font-family:'Belgiano Serif';-inkscape-font-specification:'Belgiano Serif';letter-spacing:0px;fill:#f9f9f9;stroke:#f9f9f9;stroke-width:0"
           aria-label="delim" /><path
           id="rect3"
           style="fill:none;stroke:#ffffff;stroke-width:0.947542;stroke-linejoin:round"
           transform="rotate(-45)"
           d="m 52.941293,150.6609 h 7.192257 c 2.621565,0 4.732068,2.11051 4.732068,4.73207 v 7.53473 c 0,2.62156 -2.110503,4.73207 -4.732068,4.73207 h -7.192257 c -2.621566,0 -4.732068,-2.11051 -4.732068,-4.73207 v -7.53473 c 0,-2.62156 2.110502,-4.73207 4.732068,-4.73207 z" /></g></g></g></svg>
